<svg width="512" height="512" viewBox="0 0 512 512" fill="none" xmlns="http://www.w3.org/2000/svg">
  <rect width="512" height="512" rx="112" fill="#111827"/>
  <circle cx="170" cy="150" r="72" fill="#F97316"/>
  <circle cx="330" cy="192" r="96" fill="#38BDF8" fill-opacity="0.86"/>
  <path d="M92 336C92 289.072 130.072 251 177 251H335C381.928 251 420 289.072 420 336V344C420 390.928 381.928 429 335 429H177C130.072 429 92 390.928 92 344V336Z" fill="#F8F3EA"/>
  <path d="M141 344C141 311.967 166.967 286 199 286H313C345.033 286 371 311.967 371 344V344C371 376.033 345.033 402 313 402H199C166.967 402 141 376.033 141 344V344Z" fill="#111827"/>
  <path d="M190 315H220L256 377H226L190 315Z" fill="#F8F3EA"/>
  <path d="M235 315H322V340H275V352H314V377H235V315Z" fill="#F8F3EA"/>
</svg>
